/* XPM */
static char *WxBitmapButton1_XPM[]={
/* WxBitmapButton1 */
"32 32 79 2",
"      c None",
" 0    c #EFBD84",
" 1    c #EFAD73",
" 2    c #CE9463",
" 3    c #DEAD73",
" 4    c #DE9463",
" 5    c #847352",
" 6    c #293129",
" 7    c #EFAD84",
" 8    c #DE9473",
" 9    c #DEAD63",
" a    c #CE9473",
" b    c #B58463",
" c    c #525252",
" d    c #EFBD73",
" e    c #FF4200",
" f    c #FF5208",
" g    c #DE3163",
" h    c #FF0873",
" i    c #FFF7FF",
" j    c #FF5200",
" k    c #FF0073",
" l    c #B58452",
" m    c #B59463",
" n    c #636352",
" o    c #A58452",
" p    c #B59452",
" q    c #CE8463",
" r    c #634242",
" s    c #000000",
" t    c #FFDE08",
" u    c #FFDE00",
" v    c #FFEF00",
" w    c #B55263",
" x    c #CE2163",
" y    c #840042",
" z    c #A57363",
" A    c #8408FF",
" B    c #182118",
" C    c #846352",
" D    c #732152",
" E    c #B50063",
" F    c #632118",
" G    c #946352",
" H    c #9408FF",
" I    c #523129",
" J    c #730842",
" K    c #636342",
" L    c #422129",
" M    c #000800",
" N    c #520018",
" O    c #630029",
" P    c #523118",
" Q    c #A58463",
" R    c #A57352",
" S    c #000808",
" T    c #290008",
" U    c #732142",
" V    c #524218",
" W    c #948452",
" X    c #947352",
" Y    c #080008",
" Z    c #424229",
" &    c #947342",
"0     c #524252",
"00    c #524229",
"01    c #0842FF",
"02    c #84BDB5",
"03    c #293173",
"04    c #847342",
"05    c #0042FF",
"06    c #633108",
"07    c #A59463",
"08    c #EFBD52",
"09    c #A5ADA5",
"0a    c #633118",
"0b    c #F7F7F7",
"0c    c #736352",
"0d    c #E7DEE7",
"                                   0 0 1 0                      ",
"                         0 0 0 2 3 4 3 4 4 4 5 6                ",
"                 0 0 0 7 1 1 8 3 9 3 3 3 9 9 2 a 6              ",
"             0 0 1 1 1 1 1 1 3 4 1 1 1 1 1 1 1 2 b c            ",
"           0 d 1 1 1 e e e e f 3 3 g h h h h g 2 2 2 c i        ",
"         0 1 1 1 1 1 e j j e f 9 8 g h k h h g 2 2 2 l 6        ",
"       0 d 1 0 1 1 1 j j e j f 3 9 g k h h h g a m m 2 n        ",
"     0 2 1 1 1 1 1 1 j j e j f 3 4 h h k h h g 2 m b m o 6      ",
"     0 1 7 1 9 1 1 1 e j j e f 4 8 g h h h h g p b q b m r s    ",
"   0 d t t t t t 3 1 1 1 1 1 1 4 2 4 2 2 b h b m b 2 o l 5 s    ",
"   0 0 u v v u v 1 3 3 3 9 9 a a 2 2 b w x y z A A A A A o B s  ",
"   0 1 v v v v v 1 3 4 3 4 4 2 2 l C D E h F G H A A A H o c s  ",
"   0 d v u u v u 3 4 9 4 8 2 2 l c I J y E I z A A H A A o n s  ",
"   0 d v u v v v 8 4 9 4 8 4 b K L M N O J P z A A A A A Q R B  ",
"   0 8 t t t t t 3 9 a 2 2 2 o 6 S s T N U V w A A A A A o W 6 s",
"   0 3 3 4 9 3 9 4 4 a 2 2 m X B s s T Y P Z Q G z z G G o W 6 s",
"   0 9 8 3 4 4 4 8 4 2 4 q n K M s M B P P o o W Q Q o W o & Z s",
"     3 9 8 4 4 4 a 2 2 2 n     60  P V V00 Q o0101010101 n X Z s",
"       4 3 9 a 2 4 2 2 n  02 B0304 Z K R Q o o0105050505 c W00 s",
"       0 9 2 a 2 4 m n  02 B0304 V04 b o o Q o0105050505 c W00 s",
"         0 l 2 2 2 n  02 B0304 V K b o o o o o0105050505 c &00 s",
"             0 206 007 60304 V04 b b o W Q R o0105050505 c & 6 s",
"              06 108060309 V04 b Q o Q o o W o c03030303 n W Z s",
"            0a 10806 n09 Z04 b o o o Q Q W W o X W W & X X 5 6 s",
"          0a 40806 n   c K Q o o Q o o o K 6 B B K & X & X 5 s s",
"         F 10806 n   c c   C o o o o W o B c c c M G X &04 c s  ",
"      06 10806 n   c c       K o o o W W B0b      04 X & 5 6 s  ",
"    06 10806 n   c c           C W W o & B0b       C X X0c s s  ",
"  0a 10806 n   c c               C X W W C B    0d 5 &04 B s    ",
"06 10806 n   c c                  00 W X R & & & G 504 M s      ",
" 10806 n   c c                      000000000000 Z Z s s s      ",
"0806 c   c c                            0000 s s s s0000        "};

